HIERARCHY
ROOT SpineBase
{
  OFFSET 0.000000 0.000000 0.000000
  CHANNELS 6 Xposition Yposition Zposition Zrotation Xrotation Yrotation
  JOINT SpineMid
  {
    OFFSET 0.000000 28.369008 0.000000
    CHANNELS 3 Zrotation Xrotation Yrotation
    JOINT SpineShoulder
    {
      OFFSET 0.458433 21.272488 -0.905318
      CHANNELS 3 Zrotation Xrotation Yrotation
      JOINT Neck
      {
        OFFSET 0.117257 7.092849 -0.525596
        CHANNELS 3 Zrotation Xrotation Yrotation
        JOINT Head
        {
          OFFSET 4.655014 12.910730 -1.983370
          CHANNELS 3 Zrotation Xrotation Yrotation
          End Site
          {
            OFFSET 0 0 0
          }
        }
      }
      JOINT ShoulderLeft
      {
        OFFSET -13.704581 -0.121948 -9.043457
        CHANNELS 3 Zrotation Xrotation Yrotation
        JOINT ElbowLeft
        {
          OFFSET -5.552878 -25.533025 -3.740144
          CHANNELS 3 Zrotation Xrotation Yrotation
          JOINT WristLeft
          {
            OFFSET 2.944957 -20.491883 -4.930918
            CHANNELS 3 Zrotation Xrotation Yrotation
            JOINT HandLeft
            {
              OFFSET 0.195160 -4.566128 -0.394498
              CHANNELS 3 Zrotation Xrotation Yrotation
              JOINT HandTipLeft
              {
                OFFSET 0.971141 -6.878820 0.034690
                CHANNELS 3 Zrotation Xrotation Yrotation
                End Site
                {
                  OFFSET 0 0 0
                }
              }
              JOINT ThumbLeft
              {
                OFFSET -3.767200 -0.543091 -2.270889
                CHANNELS 3 Zrotation Xrotation Yrotation
                End Site
                {
                  OFFSET 0 0 0
                }
              }
            }
          }
        }
      }
      JOINT ShoulderRight
      {
        OFFSET 14.132126 -3.493993 8.274592
        CHANNELS 3 Zrotation Xrotation Yrotation
        JOINT ElbowRight
        {
          OFFSET -1.014536 -27.924740 4.344649
          CHANNELS 3 Zrotation Xrotation Yrotation
          JOINT WristRight
          {
            OFFSET 0.735065 -26.714715 -2.463140
            CHANNELS 3 Zrotation Xrotation Yrotation
            JOINT HandRight
            {
              OFFSET 1.592299 -6.154865 0.076699
              CHANNELS 3 Zrotation Xrotation Yrotation
              JOINT HandTipRight
              {
                OFFSET 0.860572 -6.227317 0.310714
                CHANNELS 3 Zrotation Xrotation Yrotation
                End Site
                {
                  OFFSET 0 0 0
                }
              }
              JOINT ThumbRight
              {
                OFFSET 1.602678 1.342022 0.203787
                CHANNELS 3 Zrotation Xrotation Yrotation
                End Site
                {
                  OFFSET 0 0 0
                }
              }
            }
          }
        }
      }
    }
  }
  JOINT HipLeft
  {
    OFFSET -5.771498 1.407243 -6.375576
    CHANNELS 3 Zrotation Xrotation Yrotation
    JOINT KneeLeft
    {
      OFFSET -7.372168 -28.950564 0.571149
      CHANNELS 3 Zrotation Xrotation Yrotation
      JOINT AnkleLeft
      {
        OFFSET -5.091621 -31.467839 1.846303
        CHANNELS 3 Zrotation Xrotation Yrotation
        JOINT FootLeft
        {
          OFFSET 5.813989 -2.942002 -12.486852
          CHANNELS 3 Zrotation Xrotation Yrotation
          End Site
          {
            OFFSET 0 0 0
          }
        }
      }
    }
  }
  JOINT HipRight
  {
    OFFSET 6.600576 0.440781 0.037911
    CHANNELS 3 Zrotation Xrotation Yrotation
    JOINT KneeRight
    {
      OFFSET -2.990059 -27.112806 4.847849
      CHANNELS 3 Zrotation Xrotation Yrotation
      JOINT AnkleRight
      {
        OFFSET -11.390897 -34.753761 1.096692
        CHANNELS 3 Zrotation Xrotation Yrotation
        JOINT FootRight
        {
          OFFSET 3.592112 -7.404565 -3.732663
          CHANNELS 3 Zrotation Xrotation Yrotation
          End Site
          {
            OFFSET 0 0 0
          }
        }
      }
    }
  }
}
MOTION
Frames: 9
Frame Time: 0.033333
-51.653141 68.145549 344.530463 -0.547707 -8.199284 -14.021329 0.501733 0.615382 14.106290 -1.188490 -0.705025 -0.038957 19.759739 -5.917221 7.856316 0.000000 0.000000 0.000000 6.041454 5.653968 -0.870885 1.589649 15.801579 -0.474652 61.969155 47.742303 -29.477980 -8.461057 -23.347209 12.529976 0.000000 0.000000 0.000000 0.000000 0.000000 0.000000 18.285531 22.289502 -2.716497 -50.523632 41.229598 10.110849 -29.264580 18.983918 13.584270 0.628584 -22.804150 -29.077221 0.000000 0.000000 0.000000 0.000000 0.000000 0.000000 11.594540 11.545914 11.997259 -13.313528 -0.430113 -0.198597 -6.776203 -14.526398 -2.725379 0.000000 0.000000 0.000000 1.475759 7.316566 14.323876 2.967631 -0.556653 0.193135 -8.673921 1.929497 0.869302 0.000000 0.000000 0.000000
-51.502281 68.198544 344.556743 -0.440524 -7.869430 -13.958473 0.473274 0.690212 14.049885 -0.890799 -0.534575 -0.034444 19.000532 -7.023446 8.289264 0.000000 0.000000 0.000000 6.025970 5.481907 -1.016439 2.042506 15.373390 -0.622102 57.738702 49.762559 -28.921718 -3.121941 -28.993499 16.904503 0.000000 0.000000 0.000000 0.000000 0.000000 0.000000 18.243841 22.116049 -2.643092 -52.631592 42.720652 11.153462 -24.582065 14.937314 11.390481 -1.279199 -20.334916 -28.479395 0.000000 0.000000 0.000000 0.000000 0.000000 0.000000 11.371416 11.248457 12.019668 -13.284865 -1.393622 -0.052235 -3.812759 -5.914449 4.497352 0.000000 0.000000 0.000000 1.196751 6.971049 14.266013 3.226912 -0.657764 0.261826 -8.249409 1.997546 0.638164 0.000000 0.000000 0.000000
-51.439113 68.233205 344.591042 -0.436084 -7.571893 -13.967082 0.439444 0.795484 14.053337 -0.749457 -0.468476 -0.033833 18.536031 -7.910589 8.617300 0.000000 0.000000 0.000000 6.187877 5.500986 -1.173225 2.130514 14.197630 -0.631190 54.181352 53.293599 -29.618556 3.913772 -34.346421 22.423802 0.000000 0.000000 0.000000 0.000000 0.000000 0.000000 18.438339 23.240800 -2.849123 -52.016915 42.190812 9.931052 -21.489895 11.073345 8.966956 -5.233938 -18.763536 -30.363562 0.000000 0.000000 0.000000 0.000000 0.000000 0.000000 11.296997 11.051506 12.067332 -13.310400 -1.430877 -0.056956 -3.159442 -4.546268 5.115744 0.000000 0.000000 0.000000 1.165968 6.728377 14.270194 3.347776 -0.758218 0.301935 -7.979373 1.942714 0.415756 0.000000 0.000000 0.000000
-51.344278 68.268798 344.694782 -0.392925 -7.439710 -14.073571 0.368355 0.991311 14.159161 -0.674924 -0.356746 -0.033372 18.163883 -8.239138 8.653158 0.000000 0.000000 0.000000 6.378227 5.587128 -1.339416 2.069954 13.065417 -0.555925 53.293416 56.905758 -31.702600 3.676690 -34.732709 21.445492 0.000000 0.000000 0.000000 0.000000 0.000000 0.000000 19.818423 23.770057 -3.079883 -54.008005 42.566157 9.549524 -17.540605 6.624159 7.091870 -10.138327 -19.187203 -33.807782 0.000000 0.000000 0.000000 0.000000 0.000000 0.000000 10.944801 11.235800 12.125849 -13.794270 -1.377714 -0.126751 -4.540545 -10.827635 1.802273 0.000000 0.000000 0.000000 0.963514 6.768621 14.357002 3.572652 -1.010410 0.382774 -8.039016 1.852870 0.318063 0.000000 0.000000 0.000000
-51.222484 68.328052 344.604409 -0.280531 -7.205394 -14.245799 0.296102 1.003229 14.340733 -0.652267 -0.324502 -0.031882 17.715264 -7.848011 8.312256 0.000000 0.000000 0.000000 6.545695 5.767416 -1.493985 1.875879 12.036205 -0.434751 54.904652 61.270852 -35.854070 0.290205 -33.175337 17.673385 0.000000 0.000000 0.000000 0.000000 0.000000 0.000000 19.307516 26.509528 -3.589282 -51.663042 39.712369 6.795793 -14.711607 0.826147 3.618182 -11.504126 -22.204269 -33.643652 0.000000 0.000000 0.000000 0.000000 0.000000 0.000000 10.537487 10.698596 12.503390 -13.942017 -0.646050 -0.257060 -8.248333 -20.296982 -4.202699 0.000000 0.000000 0.000000 0.713747 6.338967 14.549199 3.874935 -0.910199 0.407759 -8.220927 1.776584 0.306506 0.000000 0.000000 0.000000
-51.065149 68.383045 344.581472 -0.130441 -6.985009 -14.253284 0.249976 1.016270 14.360028 -0.614732 -0.337926 -0.027253 17.289573 -7.521930 8.037061 0.000000 0.000000 0.000000 6.547182 6.051226 -1.645367 1.157895 10.744652 -0.128333 63.908896 67.630253 -47.152997 -5.363020 -31.765923 11.856328 0.000000 0.000000 0.000000 0.000000 0.000000 0.000000 17.453210 29.955224 -4.028506 -48.119963 35.814484 4.086597 -11.851854 -2.777038 2.538383 -14.538052 -23.812219 -34.819892 0.000000 0.000000 0.000000 0.000000 0.000000 0.000000 10.011879 10.323854 12.654869 -13.059475 -0.842742 -0.183444 -8.092824 -18.900711 -3.008870 0.000000 0.000000 0.000000 0.336846 5.975237 14.562610 4.284374 -0.875218 0.456275 -8.559142 1.611026 0.339293 0.000000 0.000000 0.000000
-50.902087 68.449125 344.541553 0.023521 -6.795403 -14.316984 0.200401 0.917613 14.438732 -0.597129 -0.421547 -0.022769 17.112989 -6.941960 7.711061 0.000000 0.000000 0.000000 6.481464 6.101138 -1.672778 2.038240 12.008178 -0.310319 98.244906 74.617363 -85.663635 -5.172191 -43.440627 12.471683 0.000000 0.000000 0.000000 0.000000 0.000000 0.000000 14.524168 33.789236 -4.231698 -43.829643 31.127777 1.884516 -9.943415 -4.611857 2.335412 -16.315469 -26.168450 -35.737879 0.000000 0.000000 0.000000 0.000000 0.000000 0.000000 9.451859 10.062732 12.826394 -12.293725 -1.147492 -0.102076 -8.594003 -18.952907 -3.518608 0.000000 0.000000 0.000000 -0.030435 5.635382 14.631708 4.630904 -0.816522 0.492191 -8.920603 1.444004 0.415022 0.000000 0.000000 0.000000
-50.771246 68.510823 344.491861 0.146713 -6.671543 -14.302566 0.184808 0.755729 14.438314 -0.601761 -0.544810 -0.018586 17.043561 -6.086965 7.289405 0.000000 0.000000 0.000000 6.643777 6.733513 -1.884268 2.187509 12.181116 -0.211946 158.958106 70.776802 -155.615658 13.266467 -58.858870 28.796997 0.000000 0.000000 0.000000 0.000000 0.000000 0.000000 12.503838 35.623816 -4.131493 -41.346343 28.884817 1.282665 -8.301028 -4.298277 3.669025 -18.716513 -28.635829 -38.060535 0.000000 0.000000 0.000000 0.000000 0.000000 0.000000 9.096475 9.861236 12.887233 -11.290159 -0.774004 -0.100329 -9.907785 -20.365670 -4.561936 0.000000 0.000000 0.000000 -0.300570 5.357589 14.623661 4.866810 -0.720237 0.505002 -9.333012 1.291254 0.556558 0.000000 0.000000 0.000000
-50.665049 68.580293 344.475521 0.267032 -6.607020 -14.264331 0.216549 0.610650 14.413817 -0.588704 -0.672893 -0.011948 16.851893 -5.498718 7.008355 0.000000 0.000000 0.000000 6.686093 7.516734 -2.117163 2.243781 12.373073 -0.036279 179.921480 63.525399 173.225700 42.776368 -60.406150 55.045903 0.000000 0.000000 0.000000 0.000000 0.000000 0.000000 11.138566 35.669037 -3.864275 -39.970955 28.703962 1.721104 -7.739807 -2.408053 5.498187 -20.312520 -29.708709 -39.938198 0.000000 0.000000 0.000000 0.000000 0.000000 0.000000 8.762547 9.765852 12.892814 -11.441411 -1.599489 0.008563 -9.715120 -19.948185 -5.342857 0.000000 0.000000 0.000000 -0.513823 5.227065 14.590144 4.973672 -0.688508 0.514522 -9.637097 1.348643 0.776980 0.000000 0.000000 0.000000
